<svg xmlns="http://www.w3.org/2000/svg" width="32" height="32">
  <path d="M26.667 12c-.492 0-.954.134-1.35.368A2.67 2.67 0 0 0 22.667 10c-.651 0-1.249.236-1.714.628a2.667 2.667 0 0 0-3.619-.937V2.666c0-1.471-1.196-2.667-2.667-2.667S12 1.195 12 2.666v17.843c0 .336-.221.508-.316.567s-.351.179-.648.029l-4.281-2.141a2.827 2.827 0 0 0-4.087 2.526v.509a.67.67 0 0 0 .212.488l7.695 7.182A8.64 8.64 0 0 0 16.488 32h4.18c4.779 0 8.667-3.888 8.667-8.667v-8.667a2.67 2.67 0 0 0-2.667-2.667zM28 23.333c0 4.044-3.29 7.333-7.333 7.333h-4.18c-1.863 0-3.641-.7-5.003-1.973l-7.483-6.984v-.219a1.493 1.493 0 0 1 2.158-1.333l4.281 2.141a1.988 1.988 0 0 0 1.946-.087 1.988 1.988 0 0 0 .949-1.702V2.666c0-.735.598-1.333 1.333-1.333s1.333.598 1.333 1.333v10a.667.667 0 1 0 1.334 0v-.667c0-.735.598-1.333 1.333-1.333s1.333.598 1.333 1.333v.672a.667.667 0 0 0 1.334-.005v-.01a1.336 1.336 0 0 1 1.333-1.323c.735 0 1.333.598 1.333 1.333v2a.667.667 0 1 0 1.334 0c0-.735.598-1.333 1.333-1.333s1.333.598 1.333 1.333v8.667z"/>
</svg>
